<?xml version="1.0" encoding="utf-8"?>
<!-- Generator: Adobe Illustrator 24.0.1, SVG Export Plug-In . SVG Version: 6.00 Build 0)  -->
<svg version="1.1" id="Camada_1" xmlns="http://www.w3.org/2000/svg" xmlns:xlink="http://www.w3.org/1999/xlink" x="0px" y="0px"
	 viewBox="0 0 90.7 20.8" style="enable-background:new 0 0 90.7 20.8;" xml:space="preserve">
<style type="text/css">
	.st0{fill:#66adff;}
</style>
<path class="st0" d="M90,19.4H0.2v1.3h90C90.1,20.3,90,19.9,90,19.4z"/>
<g>
	<path class="st0" d="M23.6,10.3h5.7v1.2h-7v-11H29v1.2h-5.4v3.6h4.8v1.2h-4.8C23.6,6.5,23.6,10.3,23.6,10.3z"/>
	<path class="st0" d="M31,7.8c0-0.7,0.1-1.4,0.3-1.9c0.2-0.5,0.5-1,0.8-1.3c0.3-0.4,0.7-0.6,1.1-0.8c0.4-0.2,0.9-0.3,1.3-0.3
		c0.3,0,0.6,0.1,0.9,0.1c0.3,0.1,0.5,0.2,0.6,0.3s0.3,0.2,0.4,0.3c0.1,0.1,0.2,0.2,0.2,0.3l0,0L37,3.7h1v11.7h-1.3v-4.6l0,0
		c-0.3,0.3-0.6,0.5-1,0.7s-0.8,0.2-1.3,0.2c-0.2,0-0.5,0-0.7-0.1s-0.5-0.1-0.8-0.3s-0.5-0.3-0.7-0.5s-0.4-0.4-0.6-0.7
		S31.3,9.5,31.2,9C31,8.8,31,8.3,31,7.8z M32.3,7.7c0,0.6,0.1,1.1,0.2,1.5s0.3,0.7,0.6,0.9c0.2,0.2,0.5,0.4,0.8,0.4s0.5,0.1,0.8,0.1
		c0.4,0,0.8-0.1,1.1-0.2s0.7-0.4,0.9-0.7V5.6c-0.1-0.1-0.2-0.2-0.3-0.3C36.3,5.2,36.1,5.1,36,5c-0.2-0.1-0.4-0.2-0.6-0.3
		c-0.2-0.1-0.5-0.1-0.7-0.1c-0.4,0-0.7,0.1-1,0.2C33.4,5,33.2,5.2,33,5.4c-0.2,0.3-0.3,0.6-0.4,1S32.3,7.2,32.3,7.7z"/>
	<path class="st0" d="M43.5,11.8c-0.4,0-0.8,0-1.1-0.1s-0.6-0.2-0.9-0.4c-0.2-0.2-0.5-0.4-0.6-0.6c-0.2-0.2-0.3-0.5-0.4-0.7
		c-0.1-0.2-0.1-0.4-0.2-0.7c0-0.2,0-0.5,0-0.8V3.7h1.3v4.8c0,0.4,0.1,0.8,0.2,1.1c0.1,0.3,0.3,0.6,0.6,0.8s0.7,0.3,1.1,0.3
		c0.5,0,0.9-0.1,1.2-0.3s0.5-0.5,0.6-0.8s0.1-0.6,0.1-1V3.7h1.3v4.8c0,0.3,0,0.5,0,0.7s-0.1,0.4-0.1,0.6c-0.1,0.3-0.2,0.5-0.4,0.8
		c-0.2,0.2-0.4,0.4-0.6,0.6s-0.5,0.3-0.9,0.4C44.3,11.7,43.9,11.8,43.5,11.8z"/>
	<path class="st0" d="M49.2,1.8V0.4h1.3v1.4H49.2z M49.3,11.6V3.7h1.3v7.9H49.3z"/>
	<path class="st0" d="M60.1,7.5c0,0.5-0.1,1-0.2,1.5c-0.1,0.4-0.3,0.8-0.4,1.1c-0.2,0.3-0.4,0.6-0.6,0.8s-0.5,0.4-0.7,0.5
		c-0.3,0.1-0.5,0.2-0.8,0.3s-0.5,0.1-0.7,0.1c-0.5,0-0.9-0.1-1.3-0.2c-0.4-0.2-0.7-0.4-1-0.7l0,0v4.6h-1.3V3.7h1l0.3,0.9l0,0
		c0.1-0.1,0.2-0.2,0.3-0.3C54.8,4.2,55,4.1,55.2,4c0.2-0.1,0.4-0.2,0.7-0.3c0.3-0.1,0.6-0.1,0.9-0.1c0.4,0,0.9,0.1,1.3,0.2
		c0.4,0.1,0.8,0.4,1.1,0.7s0.6,0.7,0.8,1.3C60,6.2,60.1,6.8,60.1,7.5z M58.8,7.5c0-0.5,0-0.9-0.1-1.2c-0.1-0.4-0.2-0.7-0.4-0.9
		c-0.2-0.3-0.4-0.5-0.7-0.6s-0.6-0.2-1-0.2c-0.3,0-0.5,0-0.7,0.1S55.5,4.9,55.3,5c-0.2,0.1-0.3,0.2-0.5,0.4
		c-0.1,0.1-0.2,0.2-0.3,0.3v4.1c0.3,0.3,0.6,0.5,0.9,0.7c0.3,0.2,0.7,0.2,1.1,0.2c0.2,0,0.5,0,0.8-0.1s0.5-0.3,0.8-0.5
		s0.4-0.6,0.6-1S58.8,8.2,58.8,7.5z"/>
	<path class="st0" d="M65.9,10.6c0.4,0,0.8,0,1.2-0.1c0.4-0.1,0.7-0.2,1-0.3v1.1c-0.3,0.1-0.6,0.2-1,0.3s-0.9,0.1-1.3,0.1
		c-0.6,0-1.1-0.1-1.6-0.2c-0.5-0.1-0.9-0.4-1.3-0.7c-0.4-0.3-0.6-0.7-0.9-1.3s-0.3-1.1-0.3-1.9c0-0.7,0.1-1.3,0.3-1.9s0.5-1,0.8-1.3
		c0.3-0.4,0.7-0.6,1.1-0.8c0.4-0.2,0.9-0.3,1.3-0.3s0.9,0.1,1.2,0.2s0.7,0.4,1,0.7c0.3,0.3,0.5,0.7,0.7,1.2s0.2,1.1,0.2,1.8
		c0,0.1,0,0.1,0,0.2s0,0.2,0,0.3H63c0,0.5,0.1,0.9,0.2,1.3c0.2,0.4,0.4,0.6,0.6,0.9c0.3,0.2,0.6,0.4,0.9,0.5S65.5,10.6,65.9,10.6z
		 M65.2,4.6c-0.3,0-0.6,0.1-0.8,0.2c-0.3,0.1-0.5,0.3-0.7,0.5S63.4,5.7,63.2,6C63.1,6.3,63,6.6,63,6.9h4c0-0.3,0-0.6-0.1-0.9
		s-0.2-0.5-0.4-0.7C66.4,5,66.2,4.9,66,4.7S65.5,4.6,65.2,4.6z"/>
</g>
</svg>
