<?xml version="1.0" encoding="utf-8"?>
<!-- Generator: Adobe Illustrator 24.0.1, SVG Export Plug-In . SVG Version: 6.00 Build 0)  -->
<svg version="1.1" id="Camada_1" xmlns="http://www.w3.org/2000/svg" xmlns:xlink="http://www.w3.org/1999/xlink" x="0px" y="0px"
	 viewBox="0 0 90.7 20.8" style="enable-background:new 0 0 90.7 20.8;" xml:space="preserve">
<style type="text/css">
	.st0{fill:#66adff;}
</style>
<path class="st0" d="M90,19.4H0.2v1.3h90C90.1,20.3,90,19.9,90,19.4z"/>
<g>
	<path class="st0" d="M21.8,12.3h-1.4V1.2h3.1c0.5,0,0.9,0,1.3,0.1s0.7,0.1,1.1,0.3c0.7,0.2,1.2,0.6,1.5,1.1s0.5,1.1,0.5,1.7
		s-0.1,1.1-0.3,1.5c-0.2,0.4-0.5,0.8-1,1.1c-0.4,0.3-0.9,0.5-1.6,0.7c-0.6,0.1-1.3,0.2-2.1,0.2c-0.4,0-0.8,0-1.2,0v4.4H21.8z
		 M21.8,6.5c0.2,0,0.4,0,0.6,0.1c0.2,0,0.4,0,0.6,0c0.6,0,1.2,0,1.6-0.1s0.8-0.2,1.1-0.4c0.3-0.2,0.5-0.4,0.6-0.7
		c0.1-0.3,0.2-0.6,0.2-0.9c0-0.4-0.1-0.8-0.3-1.1C26,3,25.7,2.8,25.3,2.6c-0.2-0.1-0.5-0.2-0.8-0.2s-0.7-0.1-1.1-0.1h-1.6V6.5z"/>
	<path class="st0" d="M33,11.4c0.4,0,0.8,0,1.2-0.1s0.7-0.2,1-0.3v1.1c-0.3,0.1-0.6,0.2-1,0.3s-0.9,0.1-1.3,0.1
		c-0.6,0-1.1-0.1-1.6-0.2c-0.5-0.1-0.9-0.4-1.3-0.7s-0.6-0.7-0.9-1.3s-0.3-1.1-0.3-1.9c0-0.7,0.1-1.3,0.3-1.9s0.5-1,0.8-1.3
		c0.3-0.4,0.7-0.6,1.1-0.8c0.4-0.2,0.9-0.3,1.3-0.3s0.9,0.1,1.2,0.2s0.7,0.4,1,0.7c0.3,0.3,0.5,0.7,0.7,1.2s0.2,1.1,0.2,1.8
		c0,0.1,0,0.1,0,0.2s0,0.2,0,0.3H30c0,0.5,0.1,0.9,0.2,1.3c0.2,0.4,0.4,0.6,0.6,0.9c0.3,0.2,0.6,0.4,0.9,0.5
		C32.2,11.3,32.6,11.4,33,11.4z M32.3,5.3c-0.3,0-0.6,0.1-0.8,0.2C31.2,5.6,31,5.8,30.8,6s-0.3,0.4-0.5,0.7
		c-0.1,0.3-0.2,0.6-0.2,0.9h4c0-0.3,0-0.6-0.1-0.9S33.8,6.2,33.6,6S33.2,5.6,33,5.5S32.6,5.3,32.3,5.3z"/>
	<path class="st0" d="M38.6,6.5c0,0.2,0,0.4,0.1,0.5c0.1,0.1,0.2,0.3,0.4,0.3c0.2,0.1,0.3,0.2,0.5,0.2c0.2,0.1,0.4,0.1,0.6,0.2
		c0.3,0.1,0.6,0.1,0.8,0.2s0.5,0.2,0.7,0.4s0.4,0.4,0.5,0.7s0.2,0.6,0.2,1.1c0,0.4-0.1,0.8-0.2,1.1c-0.2,0.3-0.4,0.6-0.7,0.8
		s-0.6,0.4-1,0.5s-0.8,0.2-1.3,0.2c-0.3,0-0.5,0-0.8,0c-0.2,0-0.4-0.1-0.6-0.1c-0.2,0-0.3-0.1-0.5-0.1s-0.2-0.1-0.3-0.1V11
		c0.3,0.1,0.6,0.2,1,0.3c0.3,0.1,0.7,0.1,1.1,0.1c0.3,0,0.6,0,0.8-0.1s0.5-0.1,0.6-0.2c0.2-0.1,0.3-0.2,0.4-0.4s0.1-0.4,0.1-0.6
		c0-0.2,0-0.4-0.1-0.5s-0.2-0.3-0.4-0.4C40.4,9.1,40.2,9,40,9c-0.2-0.1-0.4-0.1-0.6-0.2c-0.3-0.1-0.6-0.1-0.8-0.2
		c-0.3-0.1-0.5-0.2-0.8-0.3c-0.2-0.2-0.4-0.4-0.6-0.6c-0.1-0.3-0.2-0.6-0.2-1c0-0.4,0.1-0.8,0.2-1.1s0.4-0.6,0.6-0.8
		s0.6-0.3,0.9-0.4s0.7-0.2,1.1-0.2c0.4,0,0.8,0,1.2,0.1s0.7,0.2,1,0.3v1.1c-0.3-0.1-0.7-0.2-1-0.3s-0.7-0.1-1-0.1s-0.6,0-0.8,0.1
		s-0.4,0.1-0.5,0.3c-0.1,0.1-0.2,0.2-0.3,0.4C38.7,6.2,38.6,6.3,38.6,6.5z"/>
	<path class="st0" d="M45.5,6.5c0,0.2,0,0.4,0.1,0.5c0.1,0.1,0.2,0.3,0.4,0.3c0.2,0.1,0.3,0.2,0.5,0.2c0.2,0.1,0.4,0.1,0.6,0.2
		C47.5,7.8,47.8,7.9,48,8s0.5,0.2,0.7,0.4s0.4,0.4,0.5,0.7s0.2,0.6,0.2,1.1c0,0.4-0.1,0.8-0.2,1.1c-0.2,0.3-0.4,0.6-0.7,0.8
		s-0.6,0.4-1,0.5s-0.8,0.2-1.3,0.2c-0.3,0-0.5,0-0.8,0c-0.2,0-0.4-0.1-0.6-0.1c-0.2,0-0.3-0.1-0.5-0.1s-0.2-0.1-0.3-0.1V11
		c0.3,0.1,0.6,0.2,1,0.3c0.3,0.1,0.7,0.1,1.1,0.1c0.3,0,0.6,0,0.8-0.1s0.5-0.1,0.6-0.2c0.2-0.1,0.3-0.2,0.4-0.4s0.1-0.4,0.1-0.6
		c0-0.2,0-0.4-0.1-0.5s-0.2-0.3-0.4-0.4C47.4,9.1,47.2,9,47,9c-0.2-0.1-0.4-0.1-0.6-0.2c-0.3-0.1-0.6-0.1-0.8-0.2
		c-0.3-0.1-0.5-0.2-0.8-0.3c-0.2-0.2-0.4-0.4-0.6-0.6c-0.1-0.3-0.2-0.6-0.2-1c0-0.4,0.1-0.8,0.2-1.1S44.7,5,45,4.8s0.6-0.3,0.9-0.4
		s0.7-0.2,1.1-0.2c0.4,0,0.8,0,1.2,0.1s0.7,0.2,1,0.3v1.1c-0.3-0.1-0.7-0.2-1-0.3s-0.7-0.1-1-0.1s-0.6,0-0.8,0.1S46,5.5,45.9,5.7
		c-0.1,0.1-0.2,0.2-0.3,0.4C45.5,6.2,45.5,6.3,45.5,6.5z"/>
	<path class="st0" d="M58.5,8.4c0,0.6-0.1,1.2-0.3,1.7s-0.4,0.9-0.8,1.3c-0.3,0.4-0.7,0.6-1.2,0.8s-1,0.3-1.5,0.3
		c-0.6,0-1.1-0.1-1.6-0.3s-0.9-0.5-1.2-0.8c-0.3-0.4-0.6-0.8-0.7-1.3S51,9,51,8.4s0.1-1.2,0.3-1.7s0.4-0.9,0.8-1.3
		c0.3-0.4,0.7-0.6,1.2-0.8c0.5-0.2,1-0.3,1.5-0.3c0.6,0,1.1,0.1,1.6,0.3s0.9,0.5,1.2,0.8s0.6,0.8,0.7,1.3S58.5,7.7,58.5,8.4z
		 M57.2,8.4c0-0.5-0.1-0.9-0.2-1.3c-0.1-0.4-0.3-0.7-0.5-1S56,5.6,55.7,5.5s-0.6-0.2-1-0.2s-0.7,0.1-1,0.2S53.2,5.8,53,6.1
		c-0.2,0.3-0.4,0.6-0.5,1c-0.1,0.4-0.2,0.8-0.2,1.3s0.1,0.9,0.2,1.3c0.1,0.4,0.3,0.7,0.5,1s0.5,0.5,0.8,0.6s0.6,0.2,1,0.2
		s0.7-0.1,1-0.2c0.3-0.1,0.5-0.3,0.8-0.6c0.2-0.3,0.4-0.6,0.5-1C57.1,9.3,57.2,8.8,57.2,8.4z"/>
	<path class="st0" d="M65.1,11.4L65.1,11.4c-0.1,0.1-0.3,0.3-0.4,0.4s-0.3,0.2-0.6,0.3s-0.4,0.2-0.7,0.2s-0.5,0.1-0.8,0.1
		c-0.4,0-0.7-0.1-1-0.2c-0.3-0.1-0.6-0.3-0.8-0.5s-0.4-0.5-0.5-0.8s-0.2-0.7-0.2-1.1c0-0.4,0.1-0.7,0.2-1.1c0.1-0.3,0.3-0.6,0.6-0.8
		s0.6-0.4,0.9-0.5c0.4-0.1,0.8-0.2,1.2-0.2s0.8,0,1.1,0.1c0.3,0.1,0.7,0.2,0.9,0.3l0,0V7.3c0-0.2,0-0.4,0-0.6s0-0.3-0.1-0.5
		c-0.1-0.3-0.4-0.5-0.7-0.7c-0.3-0.2-0.7-0.3-1.3-0.3c-0.4,0-0.8,0-1.1,0.1c-0.4,0.1-0.7,0.2-1.1,0.3V4.7c0.1-0.1,0.3-0.1,0.5-0.2
		s0.4-0.1,0.6-0.1c0.2,0,0.4-0.1,0.6-0.1c0.2,0,0.4,0,0.7,0c0.8,0,1.4,0.1,2,0.4C65.6,5,66,5.4,66.2,5.8c0.1,0.2,0.1,0.4,0.2,0.6
		c0,0.2,0.1,0.4,0.1,0.7v5.3h-1.1L65.1,11.4z M65.1,8.8c-0.2-0.1-0.5-0.1-0.8-0.2c-0.3-0.1-0.7-0.1-1.1-0.1c-0.5,0-1,0.1-1.3,0.3
		s-0.5,0.6-0.5,1.1c0,0.2,0,0.5,0.1,0.6s0.2,0.3,0.3,0.5c0.1,0.1,0.3,0.2,0.5,0.3s0.4,0.1,0.6,0.1c0.3,0,0.5,0,0.8-0.1
		s0.4-0.2,0.6-0.3s0.3-0.2,0.5-0.3s0.2-0.2,0.3-0.3V8.8z"/>
	<path class="st0" d="M68.9,12.3v-12h1.3v12H68.9z"/>
</g>
</svg>
