<?xml version="1.0" encoding="utf-8"?>
<!-- Generator: Adobe Illustrator 24.0.1, SVG Export Plug-In . SVG Version: 6.00 Build 0)  -->
<svg version="1.1" id="Camada_1" xmlns="http://www.w3.org/2000/svg" xmlns:xlink="http://www.w3.org/1999/xlink" x="0px" y="0px"
	 viewBox="0 0 201.4 43.3" style="enable-background:new 0 0 201.4 43.3;" xml:space="preserve">
<style type="text/css">
	.st0{fill:#FFFFFF;}
</style>
<g>
	<path class="st0" d="M5.9,23.7c-0.1,0.7-0.1,1.4,0.3,1.8c0.2,0.3,0.7,0.4,1.2,0.4c0.6,0,0.9-0.2,1.2-0.4c0.5-0.4,0.8-0.8,0.8-1.4
		c0-0.3,0-0.7-0.4-0.9c-0.2-0.2-0.5-0.2-1.2-0.5l-1.7-0.6c-0.7-0.2-1.3-0.5-1.8-1.2c-0.4-0.5-0.6-1.2-0.6-2c0-1.4,0.7-3.1,2.1-4.2
		c1.2-0.9,2.6-1.3,4.1-1.3c0.9,0,2.2,0.2,3.1,1c0.7,0.7,0.9,1.8,0.9,2.8c0,0.2,0,0.4,0,0.7h-3.5c0.1-0.5,0-0.9-0.2-1.1
		c-0.3-0.4-0.8-0.4-1-0.4c-0.4,0-0.8,0.1-1.2,0.4c-0.5,0.4-0.6,0.8-0.6,1.1c0,0.2,0,0.5,0.3,0.7c0.1,0.1,0.4,0.2,0.9,0.4l1.8,0.7
		c0.8,0.3,1.5,0.5,2.1,1.2c0.4,0.6,0.6,1.3,0.6,2.1c0,1.2-0.4,2.9-2,4.3c-1.4,1.2-2.8,1.6-4.4,1.6c-1.2,0-2.7-0.2-3.7-1.6
		c-0.7-0.8-0.8-1.8-0.8-2.9c0-0.3,0-0.5,0-0.8H5.9z"/>
	<path class="st0" d="M26.4,23c-0.2,0.9-0.7,2.7-1.8,3.9c-1,1.1-2.7,2-4.9,2c-0.6,0-1.9-0.1-2.9-0.7c-0.9-0.5-1.7-1.6-1.7-3.4
		c0-0.6,0.1-1.2,0.2-1.9l1.9-9.2h3.7L19,22.6c-0.1,0.4-0.2,0.9-0.2,1.4c0,0.3,0,0.7,0.2,1c0.3,0.6,0.9,0.6,1.2,0.6
		c0.5,0,1-0.1,1.6-0.7c0.5-0.5,0.8-1.3,1-2.3l1.9-8.8h3.7L26.4,23z"/>
	<path class="st0" d="M30,28.5h-3.7l7.7-14.7h3.4L39,28.5h-3.7l-0.2-2.4h-3.8L30,28.5z M35,23.3l-0.2-5l-2.3,5H35z"/>
	<path class="st0" d="M56.2,19.5l-0.6,3.1H50l-0.6,2.5H56l-0.7,3.4h-6.7H45l3.1-14.7h3.6h6.6l-0.7,3.4h-6.4l-0.5,2.3H56.2z"/>
	<path class="st0" d="M66.3,28.1c-0.7,0.4-1.8,0.8-3.3,0.8c-1.3,0-3-0.3-4.1-2c-0.8-1.2-0.9-2.5-0.9-3.6c0-2.6,1-5.4,2.5-7.2
		c2.1-2.5,4.5-2.8,5.8-2.8c1.4,0,3.1,0.4,4.1,2c0.6,0.9,0.9,2.3,0.9,3.6c0,2.8-1.2,5.8-3,7.7l1.1,1.7l-1.9,1.6L66.3,28.1z
		 M66.2,23.7c0.6-1.2,1.1-2.9,1.1-4.4c0-0.4,0-1.2-0.3-1.7c-0.2-0.5-0.7-0.9-1.5-0.9c-0.5,0-1.2,0.1-1.9,0.9
		c-1.3,1.4-1.8,4.2-1.8,5.8c0,0.4,0,0.9,0.3,1.4c0.4,0.7,0.9,0.9,1.5,0.9c0.3,0,0.6-0.1,0.9-0.2l-1-1.5l1.8-1.6L66.2,23.7z"/>
	<path class="st0" d="M84,23c-0.2,0.9-0.7,2.7-1.8,3.9c-1,1.1-2.7,2-4.9,2c-0.6,0-1.9-0.1-2.9-0.7c-0.9-0.5-1.7-1.6-1.7-3.4
		c0-0.6,0.1-1.2,0.2-1.9l1.9-9.2h3.7l-1.9,8.8c-0.1,0.4-0.2,0.9-0.2,1.4c0,0.3,0,0.7,0.2,1c0.3,0.6,0.9,0.6,1.2,0.6
		c0.5,0,1-0.1,1.6-0.7c0.5-0.5,0.8-1.3,1-2.3l1.9-8.8H86L84,23z"/>
	<path class="st0" d="M92.3,13.8l-3.1,14.7h-3.7l3.1-14.7H92.3z"/>
	<path class="st0" d="M98.6,13.8h2.5c0.8,0,2.2,0.1,3.1,1.4c0.7,1,0.8,2,0.8,2.6c0,2.1-0.9,3.7-2,4.6c-1.1,0.9-2.6,1.5-4.2,1.5h-2.2
		l-1,4.7h-3.7L95,13.8H98.6z M97.2,20.6h1.5c0.7,0,1.3-0.2,1.7-0.5c0.4-0.3,0.7-0.9,0.7-1.6c0-0.4-0.1-0.8-0.3-1
		c-0.3-0.4-0.8-0.4-1.3-0.4h-1.6L97.2,20.6z"/>
	<path class="st0" d="M115.8,19.5l-0.6,3.1h-5.6l-0.6,2.5h6.6l-0.7,3.4h-6.7h-3.6l3.1-14.7h3.6h6.6l-0.7,3.4h-6.4l-0.5,2.3H115.8z"
		/>
</g>
</svg>
